<svg width="60" height="38" viewBox="0 0 60 38" fill="none" xmlns="http://www.w3.org/2000/svg">
<g filter="url(#filter0_d_499_4300)">
<path d="M18.536 9.15542C18.704 8.73719 19.296 8.73719 19.464 9.15542L20.952 12.861C21.0235 13.0391 21.1907 13.1605 21.3822 13.1735L25.3662 13.4436C25.8159 13.4741 25.9988 14.0372 25.653 14.3262L22.5886 16.8865C22.4413 17.0095 22.3775 17.206 22.4243 17.3922L23.3985 21.2647C23.5085 21.7017 23.0295 22.0497 22.6478 21.8101L19.2659 19.6869C19.1033 19.5849 18.8967 19.5849 18.7341 19.6869L15.3522 21.8101C14.9705 22.0497 14.4915 21.7017 14.6015 21.2647L15.5757 17.3922C15.6225 17.206 15.5587 17.0095 15.4114 16.8865L12.347 14.3262C12.0012 14.0372 12.1841 13.4741 12.6338 13.4436L16.6178 13.1735C16.8093 13.1605 16.9765 13.0391 17.048 12.861L18.536 9.15542Z" fill="#FFA51F"/>
</g>
<path d="M41.304 18.776H39.592V21H36.712V18.776H31.192V16.712L36.792 9.528H39.592V16.36H41.304V18.776ZM36.712 16.36V13.192L34.264 16.36H36.712ZM44.1225 21.192C43.6745 21.192 43.3225 21.16 43.0665 21.048C42.5705 20.856 42.3785 20.408 42.3785 19.48C42.3785 18.104 42.8745 17.784 44.1225 17.784C45.3865 17.784 45.8825 18.104 45.8825 19.48C45.8825 20.808 45.3865 21.192 44.1225 21.192ZM52.1111 21.24C49.0231 21.24 47.2471 19.496 47.2471 15.88V14.696C47.2471 11.096 49.1031 9.304 52.1111 9.304C53.0711 9.304 53.9031 9.512 54.6391 9.896C56.1111 10.712 56.9911 12.28 56.9911 14.68V15.88C56.9911 17.08 56.7991 18.072 56.3671 18.872C55.5511 20.456 54.0471 21.24 52.1111 21.24ZM52.1111 18.6C53.3751 18.6 53.9191 17.704 53.9191 15.752V14.824C53.9191 12.888 53.3911 11.944 52.1111 11.944C50.7991 11.944 50.3031 12.92 50.3031 14.824V15.752C50.3031 17.64 50.7991 18.6 52.1111 18.6Z" fill="#1B1B1B"/>
<defs>
<filter id="filter0_d_499_4300" x="0.166992" y="0.841736" width="37.666" height="37.0466" filterUnits="userSpaceOnUse" color-interpolation-filters="sRGB">
<feFlood flood-opacity="0" result="BackgroundImageFix"/>
<feColorMatrix in="SourceAlpha" type="matrix" values="0 0 0 0 0 0 0 0 0 0 0 0 0 0 0 0 0 0 127 0" result="hardAlpha"/>
<feOffset dy="4"/>
<feGaussianBlur stdDeviation="6"/>
<feComposite in2="hardAlpha" operator="out"/>
<feColorMatrix type="matrix" values="0 0 0 0 0.988235 0 0 0 0 0.686275 0 0 0 0 0.00392157 0 0 0 0.5 0"/>
<feBlend mode="normal" in2="BackgroundImageFix" result="effect1_dropShadow_499_4300"/>
<feBlend mode="normal" in="SourceGraphic" in2="effect1_dropShadow_499_4300" result="shape"/>
</filter>
</defs>
</svg>
