<svg width="34" height="34" viewBox="0 0 34 34" fill="none" xmlns="http://www.w3.org/2000/svg">
<path d="M23.5111 20.0747C23.3767 20.2091 23.1929 20.294 22.9808 20.294C22.5706 20.294 22.2312 19.9545 22.2312 19.5444L22.2312 11.7097L14.3965 11.7097C13.9864 11.7097 13.6469 11.3703 13.6469 10.9601C13.6469 10.55 13.9864 10.2106 14.3965 10.2106L22.9808 10.2106C23.3909 10.2106 23.7303 10.55 23.7303 10.9601L23.7303 19.5444C23.7303 19.7566 23.6454 19.9404 23.5111 20.0747Z" fill="#1B372A"/>
<path d="M23.391 11.6107L11.4904 23.5113C11.2005 23.8013 10.7197 23.8013 10.4297 23.5113C10.1398 23.2214 10.1398 22.7406 10.4297 22.4507L22.3304 10.5501C22.6203 10.2602 23.1011 10.2602 23.391 10.5501C23.6809 10.84 23.6809 11.3208 23.391 11.6107Z" fill="#1B372A"/>
</svg>
