<svg width="175" height="72" viewBox="0 0 175 72" fill="none" xmlns="http://www.w3.org/2000/svg">
<path d="M25.2382 118.983L31.2031 32.3621C31.3027 30.9155 32.5052 29.793 33.9552 29.793H171.462C173.109 29.793 174.389 31.2269 174.203 32.8634L164.348 119.484C164.189 120.878 163.01 121.931 161.607 121.931H27.9903C26.3921 121.931 25.1284 120.577 25.2382 118.983Z" fill="#931551"/>
<path d="M25.2382 118.983L31.2031 32.3621C31.3027 30.9155 32.5052 29.793 33.9552 29.793H164.299C165.943 29.793 167.222 31.2215 167.041 32.8553L157.445 119.476C157.29 120.873 156.109 121.931 154.703 121.931H27.9903C26.3921 121.931 25.1284 120.577 25.2382 118.983Z" fill="#E83289"/>
<path d="M31.6155 109.852L37.2494 38.4041C37.3625 36.9691 38.56 35.8623 39.9995 35.8623L159.311 35.8623C160.963 35.8623 162.245 37.3044 162.051 38.945L153.6 110.393C153.436 111.782 152.259 112.828 150.86 112.828H34.3656C32.7565 112.828 31.489 111.456 31.6155 109.852Z" fill="#FAFFFD"/>
<path d="M101.793 57.0426C101.572 60.7944 103.724 69.4564 104.828 73.3185C106.667 74.5139 111.503 77.0702 116.138 77.7323C121.931 78.5598 139.31 76.6288 142.069 75.5254C144.828 74.4219 147.862 64.4909 147.862 60.9047C147.862 57.3185 140.414 49.0426 137.931 47.3874C135.448 45.7323 128 45.1806 124.69 43.2495C121.379 41.3185 111.172 40.7668 107.034 42.1461C102.897 43.5254 102.069 52.353 101.793 57.0426Z" fill="#1B372A"/>
<path d="M124.414 96.4902C131.918 96.4902 137.656 89.6856 139.587 86.2833C140.414 82.4212 144.001 83.2488 145.656 81.3178C147.311 79.3867 147.241 72.4024 145.656 71.4481C142.345 69.4557 141.058 72.7661 139.587 73.3178C138.116 73.3178 136.828 72.4902 136.828 69.4557C136.828 65.506 134.07 59.8618 132.139 59.0342C130.208 58.2067 130.483 55.9384 127.725 55.9385C125.368 55.9385 111.725 57.3178 108.966 58.1454C106.759 58.8074 106.759 65.9615 107.035 69.4557C107.035 70.3753 106.483 72.2695 104.277 72.4902C100.69 72.8488 101.75 76.7862 102.621 79.1109C103.449 81.3178 105.564 82.6971 107.035 83.2488C107.403 83.5247 108.304 85.2902 108.966 90.1454C109.794 96.2143 115.035 96.4902 124.414 96.4902Z" fill="#8F8471"/>
<g filter="url(#filter0_b_499_4194)">
<path d="M14.7874 90.8182L20.4213 19.3699C20.5344 17.9349 21.7319 16.8281 23.1714 16.8281L142.483 16.8281C144.135 16.8281 145.417 18.2702 145.223 19.9108L136.772 91.3591C136.607 92.7476 135.43 93.7936 134.032 93.7936H17.5374C15.9284 93.7936 14.6609 92.4222 14.7874 90.8182Z" fill="#E83289" fill-opacity="0.1"/>
<path d="M14.7874 90.8182L20.4213 19.3699C20.5344 17.9349 21.7319 16.8281 23.1714 16.8281L142.483 16.8281C144.135 16.8281 145.417 18.2702 145.223 19.9108L136.772 91.3591C136.607 92.7476 135.43 93.7936 134.032 93.7936H17.5374C15.9284 93.7936 14.6609 92.4222 14.7874 90.8182Z" stroke="white" stroke-width="0.551724"/>
</g>
<path d="M26.415 0L0.208078 17.1034C-0.4356 21.1494 0.042561 30.069 7.10463 33.3793C14.1667 36.6897 18.323 30.5287 19.5184 27.0345L20.8977 17.1034L46.0012 0H26.415Z" fill="#1B372A"/>
<path d="M45.7942 0L20.8311 17.1034C20.1874 21.1494 20.6656 30.069 27.7277 33.3793C34.7897 36.6897 38.9461 30.5287 40.1415 27.0345L41.5208 17.1034L62.8299 0H45.7942Z" fill="#FBDE92"/>
<path d="M62.4856 0L41.796 17.1034C41.1523 21.1494 41.6305 30.069 48.6925 33.3793C55.7546 36.6897 59.9109 30.5287 61.1063 27.0345L62.4856 17.1034L79.1051 0H62.4856Z" fill="#1B372A"/>
<path d="M78.8285 0L61.6573 17.1034C61.0136 21.1494 61.4918 30.069 68.5538 33.3793C75.6159 36.6897 81.1515 28.8736 82.347 25.3793V17.1034L97.3113 0H78.8285Z" fill="#FBDE92"/>
<path d="M97.0357 0L82.0714 17.1034C81.4277 21.1494 81.9058 30.069 88.9679 33.3793C96.03 36.6897 101.566 28.8736 102.761 25.3793V17.1034L113.312 0H97.0357Z" fill="#1B372A"/>
<path d="M113.312 0L102.485 17.1034C101.842 21.1494 102.32 30.069 109.382 33.3793C116.444 36.6897 121.98 28.8736 123.175 25.3793V17.1034L130.691 0H113.312Z" fill="#FBDE92"/>
<path d="M130.482 0L122.347 17.1034C121.703 21.1494 122.181 30.069 129.243 33.3793C136.305 36.6897 143.288 31.3563 144.483 27.8621L145.863 17.1034V0H130.482Z" fill="#1B372A"/>
<g style="mix-blend-mode:soft-light">
<mask id="mask0_499_4194" style="mask-type:alpha" maskUnits="userSpaceOnUse" x="0" y="0" width="146" height="35">
<path d="M26.415 0L0.208078 17.1034C-0.4356 21.1494 0.042561 30.069 7.10463 33.3793C14.1667 36.6897 18.323 30.5287 19.5184 27.0345L20.8977 17.1034L46.0012 0H26.415Z" fill="#1B372A"/>
<path d="M45.7931 0L20.83 17.1034C20.1863 21.1494 20.6645 30.069 27.7265 33.3793C34.7886 36.6897 38.9449 30.5287 40.1403 27.0345L41.5196 17.1034L62.8288 0H45.7931Z" fill="#FBDE92"/>
<path d="M62.4851 0L41.7955 17.1034C41.1518 21.1494 41.63 30.069 48.6921 33.3793C55.7541 36.6897 59.9104 30.5287 61.1058 27.0345L62.4851 17.1034L79.1047 0H62.4851Z" fill="#1B372A"/>
<path d="M78.8288 0L61.6576 17.1034C61.0139 21.1494 61.4921 30.069 68.5541 33.3793C75.6162 36.6897 81.1518 28.8736 82.3472 25.3793V17.1034L97.3116 0H78.8288Z" fill="#FBDE92"/>
<path d="M97.0357 0L82.0714 17.1034C81.4277 21.1494 81.9058 30.069 88.9679 33.3793C96.03 36.6897 101.566 28.8736 102.761 25.3793V17.1034L113.312 0H97.0357Z" fill="#1B372A"/>
<path d="M113.312 0L102.485 17.1034C101.841 21.1494 102.32 30.069 109.382 33.3793C116.444 36.6897 121.979 28.8736 123.175 25.3793V17.1034L130.691 0H113.312Z" fill="#FBDE92"/>
<path d="M130.483 0L122.347 17.1034C121.704 21.1494 122.182 30.069 129.244 33.3793C136.306 36.6897 143.289 31.3563 144.484 27.8621L145.863 17.1034V0H130.483Z" fill="#1B372A"/>
</mask>
<g mask="url(#mask0_499_4194)">
<rect x="-11.0332" y="17.1035" width="173.241" height="32" fill="black"/>
</g>
</g>
<defs>
<filter id="filter0_b_499_4194" x="3.46845" y="5.51779" width="153.084" height="99.5862" filterUnits="userSpaceOnUse" color-interpolation-filters="sRGB">
<feFlood flood-opacity="0" result="BackgroundImageFix"/>
<feGaussianBlur in="BackgroundImageFix" stdDeviation="5.51724"/>
<feComposite in2="SourceAlpha" operator="in" result="effect1_backgroundBlur_499_4194"/>
<feBlend mode="normal" in="SourceGraphic" in2="effect1_backgroundBlur_499_4194" result="shape"/>
</filter>
</defs>
</svg>
