<svg width="225" height="142" viewBox="0 0 225 142" fill="none" xmlns="http://www.w3.org/2000/svg">
<path d="M32.4249 152.86L40.0881 41.576C40.2161 39.7175 41.761 38.2754 43.6238 38.2754H220.282C222.398 38.2754 224.043 40.1176 223.803 42.2201L211.142 153.504C210.939 155.294 209.423 156.647 207.621 156.647H35.9606C33.9074 156.647 32.2838 154.908 32.4249 152.86Z" fill="#0E5912"/>
<path d="M32.4249 152.86L40.0881 41.576C40.2161 39.7175 41.761 38.2754 43.6238 38.2754H211.079C213.191 38.2754 214.834 40.1107 214.602 42.2097L202.274 153.493C202.075 155.289 200.558 156.647 198.751 156.647H35.9606C33.9074 156.647 32.2838 154.908 32.4249 152.86Z" fill="#2D8331"/>
<path d="M40.6159 141.13L47.8539 49.3387C47.9993 47.4952 49.5377 46.0733 51.387 46.0733L204.669 46.0732C206.792 46.0732 208.438 47.9259 208.189 50.0336L197.332 141.825C197.121 143.609 195.609 144.953 193.812 144.953H44.149C42.0818 144.953 40.4534 143.191 40.6159 141.13Z" fill="#FAFFFD"/>
<path d="M144.951 129.28C130.208 128.996 120.615 140.03 117.662 145.582H192.796C195.395 145.582 199.884 147.071 195.631 140.266C191.379 133.462 179.565 129.043 175.785 129.28C170.705 129.398 159.695 129.563 144.951 129.28Z" fill="#F9CE63"/>
<path d="M130.776 73.2834C130.493 78.1033 133.257 89.2317 134.675 94.1934C137.037 95.7291 143.251 99.0133 149.205 99.8638C156.648 100.927 178.975 98.4462 182.519 97.0286C186.063 95.611 189.962 82.8523 189.962 78.2451C189.962 73.6378 180.393 63.0056 177.203 60.8792C174.014 58.7527 164.445 58.0439 160.192 55.5631C155.939 53.0823 142.826 52.3735 137.51 54.1455C132.194 55.9175 131.131 67.2585 130.776 73.2834Z" fill="#0E5912"/>
<path d="M176.495 130.697V112.268L146.725 120.419V130.697C146.725 132.469 149.56 138.139 161.61 139.557C171.25 140.691 175.55 134.123 176.495 130.697Z" fill="#34423C"/>
<path d="M159.839 123.963C169.478 123.963 176.85 115.221 179.331 110.85C180.394 105.888 185.001 106.951 187.128 104.471C189.254 101.99 189.165 93.0168 187.128 91.7908C182.875 89.2311 181.221 93.484 179.331 94.1928C177.441 94.1928 175.787 93.1296 175.787 89.2311C175.787 84.1569 172.243 76.9057 169.762 75.8424C167.281 74.7792 167.635 71.8652 164.091 71.8652C161.063 71.8653 143.536 73.6373 139.992 74.7005C137.157 75.5511 137.157 84.742 137.511 89.2311C137.511 90.4125 136.802 92.8461 133.967 93.1296C129.36 93.5903 130.72 98.6488 131.84 101.635C132.904 104.471 135.621 106.243 137.511 106.951C137.983 107.306 139.141 109.574 139.992 115.812C141.055 123.609 147.789 123.963 159.839 123.963Z" fill="#4D6A5D"/>
<g filter="url(#filter0_b_499_4218)">
<path d="M18.9987 116.676L26.2367 24.8846C26.3821 23.0411 27.9205 21.6192 29.7698 21.6192L183.052 21.6191C185.175 21.6191 186.821 23.4718 186.572 25.5795L175.715 117.371C175.504 119.155 173.992 120.498 172.195 120.498H22.5318C20.4646 120.498 18.8362 118.737 18.9987 116.676Z" fill="#F9CE63" fill-opacity="0.1"/>
<path d="M18.9987 116.676L26.2367 24.8846C26.3821 23.0411 27.9205 21.6192 29.7698 21.6192L183.052 21.6191C185.175 21.6191 186.821 23.4718 186.572 25.5795L175.715 117.371C175.504 119.155 173.992 120.498 172.195 120.498H22.5318C20.4646 120.498 18.8362 118.737 18.9987 116.676Z" stroke="white" stroke-width="0.708812"/>
</g>
<path d="M33.9359 0L0.267323 21.9732C-0.559625 27.1711 0.054679 38.6303 9.12748 42.8831C18.2003 47.136 23.54 39.2209 25.0758 34.7318L26.8478 21.9732L59.0987 0H33.9359Z" fill="#1B372A"/>
<path d="M58.8321 0L26.7615 21.9732C25.9345 27.1711 26.5488 38.6303 35.6216 42.8831C44.6944 47.136 50.0341 39.2209 51.5699 34.7318L53.3419 21.9732L80.7183 0H58.8321Z" fill="#FBDE92"/>
<path d="M80.2755 0L53.6951 21.9732C52.8681 27.1711 53.4824 38.6303 62.5552 42.8831C71.628 47.136 76.9677 39.2209 78.5035 34.7318L80.2755 21.9732L101.627 0H80.2755Z" fill="#1B372A"/>
<path d="M101.273 0L79.2126 21.9732C78.3857 27.1711 79 38.6303 88.0728 42.8831C97.1456 47.136 104.257 37.0945 105.793 32.6054V21.9732L125.018 0H101.273Z" fill="#FBDE92"/>
<path d="M124.664 0L105.439 21.9732C104.612 27.1711 105.227 38.6303 114.299 42.8831C123.372 47.136 130.484 37.0945 132.02 32.6054V21.9732L145.574 0H124.664Z" fill="#1B372A"/>
<path d="M145.575 0L131.666 21.9732C130.839 27.1711 131.453 38.6303 140.526 42.8831C149.599 47.136 156.71 37.0945 158.246 32.6054V21.9732L167.902 0H145.575Z" fill="#FBDE92"/>
<path d="M167.633 0L157.181 21.9732C156.354 27.1711 156.969 38.6303 166.042 42.8831C175.114 47.136 184.085 40.2842 185.621 35.795L187.393 21.9732V0H167.633Z" fill="#1B372A"/>
<g style="mix-blend-mode:soft-light">
<mask id="mask0_499_4218" style="mask-type:alpha" maskUnits="userSpaceOnUse" x="0" y="0" width="188" height="45">
<path d="M33.9359 0L0.267323 21.9732C-0.559625 27.1711 0.054679 38.6303 9.12748 42.8831C18.2003 47.136 23.54 39.2209 25.0758 34.7318L26.8478 21.9732L59.0987 0H33.9359Z" fill="#1B372A"/>
<path d="M58.8314 0L26.7607 21.9732C25.9338 27.1711 26.5481 38.6303 35.6209 42.8831C44.6937 47.136 50.0334 39.2209 51.5692 34.7318L53.3412 21.9732L80.7176 0H58.8314Z" fill="#FBDE92"/>
<path d="M80.2761 0L53.6956 21.9732C52.8687 27.1711 53.483 38.6303 62.5558 42.8831C71.6286 47.136 76.9683 39.2209 78.504 34.7318L80.2761 21.9732L101.628 0H80.2761Z" fill="#1B372A"/>
<path d="M101.273 0L79.2128 21.9732C78.3859 27.1711 79.0002 38.6303 88.073 42.8831C97.1458 47.136 104.258 37.0945 105.793 32.6054V21.9732L125.018 0H101.273Z" fill="#FBDE92"/>
<path d="M124.664 0L105.439 21.9732C104.612 27.1711 105.226 38.6303 114.299 42.8831C123.372 47.136 130.484 37.0945 132.019 32.6054V21.9732L145.574 0H124.664Z" fill="#1B372A"/>
<path d="M145.574 0L131.665 21.9732C130.838 27.1711 131.452 38.6303 140.525 42.8831C149.598 47.136 156.71 37.0945 158.245 32.6054V21.9732L167.901 0H145.574Z" fill="#FBDE92"/>
<path d="M167.634 0L157.182 21.9732C156.355 27.1711 156.97 38.6303 166.042 42.8831C175.115 47.136 184.086 40.2842 185.622 35.795L187.394 21.9732V0H167.634Z" fill="#1B372A"/>
</mask>
<g mask="url(#mask0_499_4218)">
<rect x="-14.1758" y="21.9736" width="222.567" height="41.1111" fill="black"/>
</g>
</g>
<defs>
<filter id="filter0_b_499_4218" x="4.45706" y="7.08846" width="196.67" height="127.941" filterUnits="userSpaceOnUse" color-interpolation-filters="sRGB">
<feFlood flood-opacity="0" result="BackgroundImageFix"/>
<feGaussianBlur in="BackgroundImageFix" stdDeviation="7.08812"/>
<feComposite in2="SourceAlpha" operator="in" result="effect1_backgroundBlur_499_4218"/>
<feBlend mode="normal" in="SourceGraphic" in2="effect1_backgroundBlur_499_4218" result="shape"/>
</filter>
</defs>
</svg>
