<svg width="1225" height="180" viewBox="0 0 1225 180" fill="none" xmlns="http://www.w3.org/2000/svg">
<rect opacity="0.1" width="1225" height="180" fill="#FCAF01"/>
<mask id="mask0_499_4247" style="mask-type:alpha" maskUnits="userSpaceOnUse" x="0" y="0" width="1225" height="180">
<rect width="1225" height="180" fill="#FCAF01"/>
</mask>
<g mask="url(#mask0_499_4247)">
<path d="M1188.07 144.497L1190.92 155.122L1191.18 156.088L1187.8 156.994C1186.69 153.495 1184.41 145.892 1184.17 143.471C1183.88 140.443 1185.36 134.354 1192.6 132.413C1198.4 130.86 1203.55 134.655 1204.98 139.967L1207.95 151.075L1204.09 152.111L1201.11 141.003C1200.6 139.071 1197.85 134.629 1193.51 135.794C1188.19 137.217 1187.43 142.082 1188.07 144.497Z" stroke="#2D8331"/>
<rect x="1180.44" y="157.413" width="43" height="40" transform="rotate(-15 1180.44 157.413)" fill="#2D8331"/>
<rect x="1185.27" y="156.119" width="5" height="40" transform="rotate(-15 1185.27 156.119)" fill="#0E3D10"/>
<path d="M1208.36 176.849L1209.72 161.369L1212.3 160.675L1210.96 176.15L1208.36 176.849ZM1205.69 170.752C1204.93 170.955 1204.25 170.959 1203.64 170.762C1203.04 170.549 1202.54 170.193 1202.13 169.696C1201.73 169.182 1201.44 168.577 1201.25 167.881L1201.12 167.379C1200.92 166.645 1200.88 165.96 1200.98 165.324C1201.09 164.689 1201.36 164.141 1201.78 163.681C1202.21 163.221 1202.79 162.892 1203.53 162.696C1204.28 162.496 1204.94 162.489 1205.53 162.677C1206.13 162.861 1206.64 163.201 1207.05 163.699C1207.46 164.197 1207.76 164.813 1207.96 165.547L1208.09 166.049C1208.28 166.744 1208.32 167.416 1208.22 168.065C1208.13 168.697 1207.87 169.255 1207.47 169.737C1207.05 170.206 1206.46 170.545 1205.69 170.752ZM1205.13 168.684C1205.53 168.578 1205.78 168.358 1205.89 168.027C1206 167.679 1205.96 167.144 1205.77 166.423C1205.57 165.663 1205.33 165.167 1205.06 164.936C1204.79 164.704 1204.46 164.64 1204.08 164.744C1203.69 164.847 1203.44 165.066 1203.32 165.401C1203.2 165.737 1203.25 166.278 1203.45 167.025C1203.64 167.746 1203.87 168.229 1204.15 168.473C1204.42 168.718 1204.75 168.788 1205.13 168.684ZM1217.08 174.863C1216.31 175.07 1215.62 175.074 1215.03 174.873C1214.44 174.673 1213.94 174.324 1213.53 173.826C1213.13 173.312 1212.84 172.708 1212.65 172.012L1212.52 171.51C1212.32 170.763 1212.27 170.072 1212.37 169.436C1212.48 168.8 1212.74 168.254 1213.16 167.798C1213.59 167.338 1214.17 167.007 1214.92 166.807C1215.67 166.607 1216.34 166.601 1216.92 166.788C1217.51 166.976 1218.01 167.318 1218.42 167.816C1218.83 168.313 1219.14 168.936 1219.34 169.683L1219.47 170.185C1219.66 170.88 1219.7 171.552 1219.6 172.201C1219.5 172.833 1219.25 173.384 1218.84 173.854C1218.44 174.32 1217.85 174.656 1217.08 174.863ZM1216.53 172.815C1216.93 172.708 1217.18 172.489 1217.29 172.157C1217.4 171.809 1217.36 171.275 1217.17 170.554C1216.96 169.781 1216.72 169.285 1216.46 169.066C1216.19 168.835 1215.86 168.771 1215.47 168.874C1215.09 168.978 1214.83 169.199 1214.7 169.537C1214.58 169.86 1214.62 170.401 1214.82 171.161C1215.02 171.882 1215.25 172.365 1215.52 172.609C1215.8 172.854 1216.13 172.922 1216.53 172.815Z" fill="#FBDE92"/>
<path d="M1196.55 142.224L1199.4 152.849L1199.66 153.815L1196.28 154.721C1195.17 151.222 1192.89 143.62 1192.66 141.198C1192.36 138.171 1193.84 132.082 1201.08 130.141C1206.88 128.588 1212.03 132.382 1213.46 137.695L1216.43 148.803L1212.57 149.838L1209.59 138.73C1209.08 136.798 1206.33 132.357 1201.99 133.521C1196.67 134.945 1195.91 139.809 1196.55 142.224Z" stroke="#2D8331"/>
<path d="M571.543 111.463C571.794 111.208 572.206 111.208 572.457 111.463L573.74 112.762C573.946 112.971 574.269 113.013 574.522 112.865L576.097 111.942C576.406 111.761 576.804 111.868 576.981 112.179L577.883 113.765C578.029 114.021 578.329 114.145 578.612 114.067L580.372 113.584C580.718 113.489 581.074 113.695 581.165 114.041L581.626 115.807C581.7 116.091 581.958 116.289 582.252 116.287L584.077 116.276C584.435 116.274 584.726 116.565 584.724 116.923L584.713 118.748C584.711 119.042 584.909 119.3 585.193 119.374L586.959 119.835C587.305 119.926 587.511 120.282 587.416 120.628L586.933 122.388C586.855 122.671 586.979 122.971 587.235 123.117L588.821 124.019C589.132 124.196 589.239 124.594 589.058 124.903L588.135 126.478C587.987 126.731 588.029 127.054 588.238 127.26L589.537 128.543C589.792 128.794 589.792 129.206 589.537 129.457L588.238 130.74C588.029 130.946 587.987 131.269 588.135 131.522L589.058 133.097C589.239 133.406 589.132 133.804 588.821 133.981L587.235 134.883C586.979 135.029 586.855 135.329 586.933 135.612L587.416 137.372C587.511 137.718 587.305 138.074 586.959 138.165L585.193 138.626C584.909 138.7 584.711 138.958 584.713 139.252L584.724 141.077C584.726 141.435 584.435 141.726 584.077 141.724L582.252 141.713C581.958 141.711 581.7 141.909 581.626 142.193L581.165 143.959C581.074 144.305 580.718 144.511 580.372 144.416L578.612 143.933C578.329 143.855 578.029 143.979 577.883 144.235L576.981 145.821C576.804 146.132 576.406 146.239 576.097 146.058L574.522 145.135C574.269 144.987 573.946 145.029 573.74 145.238L572.457 146.537C572.206 146.792 571.794 146.792 571.543 146.537L570.26 145.238C570.054 145.029 569.731 144.987 569.478 145.135L567.903 146.058C567.594 146.239 567.196 146.132 567.019 145.821L566.117 144.235C565.971 143.979 565.671 143.855 565.388 143.933L563.628 144.416C563.282 144.511 562.926 144.305 562.835 143.959L562.374 142.193C562.3 141.909 562.042 141.711 561.748 141.713L559.923 141.724C559.565 141.726 559.274 141.435 559.276 141.077L559.287 139.252C559.289 138.958 559.091 138.7 558.807 138.626L557.041 138.165C556.695 138.074 556.489 137.718 556.584 137.372L557.067 135.612C557.145 135.329 557.021 135.029 556.765 134.883L555.179 133.981C554.868 133.804 554.761 133.406 554.942 133.097L555.865 131.522C556.013 131.269 555.971 130.946 555.762 130.74L554.463 129.457C554.208 129.206 554.208 128.794 554.463 128.543L555.762 127.26C555.971 127.054 556.013 126.731 555.865 126.478L554.942 124.903C554.761 124.594 554.868 124.196 555.179 124.019L556.765 123.117C557.021 122.971 557.145 122.671 557.067 122.388L556.584 120.628C556.489 120.282 556.695 119.926 557.041 119.835L558.807 119.374C559.091 119.3 559.289 119.042 559.287 118.748L559.276 116.923C559.274 116.565 559.565 116.274 559.923 116.276L561.748 116.287C562.042 116.289 562.3 116.091 562.374 115.807L562.835 114.041C562.926 113.695 563.282 113.489 563.628 113.584L565.388 114.067C565.671 114.145 565.971 114.021 566.117 113.765L567.019 112.179C567.196 111.868 567.594 111.761 567.903 111.942L569.478 112.865C569.731 113.013 570.054 112.971 570.26 112.762L571.543 111.463Z" fill="#E83289"/>
<path d="M563.318 134.197C562.669 134.347 562.156 134.376 561.789 134.275C561.045 134.091 560.774 133.461 560.819 132.448L560.819 132.439L562.494 132.052L562.493 132.079C562.47 132.688 562.742 132.945 563.435 132.785C564.022 132.649 564.282 132.323 564.302 131.945C564.311 131.775 564.265 131.661 564.138 131.592C563.894 131.462 563.46 131.474 562.984 131.477C562.516 131.479 562.032 131.448 561.66 131.277C561.271 131.091 561.048 130.725 561.085 130.024C561.105 129.638 561.21 129.285 561.41 128.946C561.791 128.272 562.529 127.746 563.599 127.499C565.213 127.127 566.007 127.671 565.944 129.045L565.943 129.054L564.339 129.424L564.339 129.415C564.341 128.882 564.109 128.687 563.495 128.829C562.942 128.956 562.727 129.272 562.71 129.587C562.702 129.74 562.748 129.862 562.875 129.913C563.103 130.029 563.519 130.013 563.987 130.011C564.464 130.008 564.948 130.038 565.336 130.233C565.725 130.418 565.965 130.798 565.927 131.508C565.861 132.775 564.975 133.814 563.318 134.197ZM569.606 131.493L567.51 131.977L567.108 133.189L565.486 133.563L568.007 126.615L569.638 126.238L571.51 132.172L569.897 132.545L569.606 131.493ZM568.715 128.316L567.974 130.556L569.254 130.26L568.715 128.316ZM571.526 132.169L571.863 125.725L573.512 125.344L573.259 130.179L575.898 129.57L575.814 131.179L571.526 132.169ZM580.588 130.076L576.081 131.117L576.419 124.673L580.838 123.653L580.765 125.055L577.915 125.713L577.858 126.791L580.428 126.198L580.354 127.609L577.784 128.202L577.727 129.29L580.665 128.611L580.588 130.076Z" fill="#FBDE92"/>
<path d="M561.072 127.072L581.322 121.929" stroke="#FBDE92" stroke-width="0.642857"/>
<path d="M561.072 137.357L581.322 132.214" stroke="#FBDE92" stroke-width="0.642857"/>
<rect x="796" y="14" width="102" height="210" rx="24" fill="#FBDE92"/>
<rect x="897" y="14" width="102" height="217" rx="24" fill="#FFF0CA"/>
<rect x="999" y="14" width="102" height="216" rx="24" fill="#FBDE92"/>
<path d="M831.721 75.5V86.5V87.5H828.221C828.054 83.8333 827.821 75.9 828.221 73.5C828.721 70.5 831.721 65 839.221 65C845.221 65 849.221 70 849.221 75.5V87H845.221V75.5C845.221 73.5001 843.721 68.5 839.221 68.5C833.721 68.5 831.721 73 831.721 75.5Z" stroke="#2D8331"/>
<rect x="821" y="86" width="43" height="40" fill="#2D8331"/>
<rect x="826" y="86" width="5" height="40" fill="#0E3D10"/>
<path d="M826 121L822 126H830.5L826 121Z" fill="#FBDE92"/>
<path d="M842.94 112L848.26 97.4H850.94L845.64 112H842.94ZM841.94 105.42C841.153 105.42 840.493 105.247 839.96 104.9C839.44 104.54 839.047 104.067 838.78 103.48C838.527 102.88 838.4 102.22 838.4 101.5V100.98C838.4 100.22 838.533 99.5467 838.8 98.96C839.067 98.3733 839.467 97.9133 840 97.58C840.533 97.2467 841.18 97.08 841.94 97.08C842.713 97.08 843.36 97.2467 843.88 97.58C844.413 97.9133 844.813 98.3733 845.08 98.96C845.347 99.5467 845.48 100.22 845.48 100.98V101.5C845.48 102.22 845.347 102.88 845.08 103.48C844.827 104.067 844.44 104.54 843.92 104.9C843.4 105.247 842.74 105.42 841.94 105.42ZM841.94 103.28C842.353 103.28 842.653 103.133 842.84 102.84C843.04 102.533 843.14 102.007 843.14 101.26C843.14 100.473 843.04 99.9333 842.84 99.64C842.64 99.3467 842.34 99.2 841.94 99.2C841.54 99.2 841.24 99.3467 841.04 99.64C840.84 99.9333 840.74 100.467 840.74 101.24C840.74 101.987 840.84 102.513 841.04 102.82C841.24 103.127 841.54 103.28 841.94 103.28ZM851.88 112.34C851.08 112.34 850.42 112.167 849.9 111.82C849.38 111.473 848.987 111.007 848.72 110.42C848.467 109.82 848.34 109.16 848.34 108.44V107.92C848.34 107.147 848.473 106.467 848.74 105.88C849.007 105.293 849.4 104.833 849.92 104.5C850.453 104.167 851.107 104 851.88 104C852.653 104 853.3 104.167 853.82 104.5C854.34 104.833 854.733 105.293 855 105.88C855.267 106.467 855.4 107.147 855.4 107.92V108.44C855.4 109.16 855.267 109.82 855 110.42C854.747 111.007 854.36 111.473 853.84 111.82C853.333 112.167 852.68 112.34 851.88 112.34ZM851.88 110.22C852.293 110.22 852.593 110.073 852.78 109.78C852.98 109.473 853.08 108.947 853.08 108.2C853.08 107.4 852.98 106.86 852.78 106.58C852.58 106.287 852.28 106.14 851.88 106.14C851.48 106.14 851.173 106.287 850.96 106.58C850.76 106.86 850.66 107.393 850.66 108.18C850.66 108.927 850.76 109.453 850.96 109.76C851.16 110.067 851.467 110.22 851.88 110.22Z" fill="#FBDE92"/>
<path d="M840.5 75.5V86.5V87.5H837C836.833 83.8333 836.6 75.9 837 73.5C837.5 70.5 840.5 65 848 65C854 65 858 70 858 75.5V87H854V75.5C854 73.5001 852.5 68.5 848 68.5C842.5 68.5 840.5 73 840.5 75.5Z" stroke="#2D8331"/>
<g filter="url(#filter0_d_499_4247)">
<path d="M1049.34 72.6689C1049.7 72.3008 1050.3 72.3008 1050.66 72.6689L1052.51 74.5445C1052.81 74.8466 1053.28 74.9078 1053.64 74.6933L1055.92 73.361C1056.36 73.0996 1056.94 73.2534 1057.19 73.703L1058.5 75.9942C1058.71 76.3632 1059.14 76.5427 1059.55 76.4303L1062.09 75.7323C1062.59 75.5953 1063.11 75.8924 1063.24 76.3929L1063.9 78.9436C1064.01 79.3543 1064.38 79.64 1064.81 79.6373L1067.44 79.621C1067.96 79.6178 1068.38 80.038 1068.38 80.5553L1068.36 83.1916C1068.36 83.6161 1068.65 83.9884 1069.06 84.0957L1071.61 84.7623C1072.11 84.8931 1072.4 85.4077 1072.27 85.9066L1071.57 88.4488C1071.46 88.8582 1071.64 89.2917 1072.01 89.5017L1074.3 90.8057C1074.75 91.0616 1074.9 91.6355 1074.64 92.082L1073.31 94.3569C1073.09 94.7232 1073.15 95.1884 1073.46 95.4868L1075.33 97.3394C1075.7 97.7029 1075.7 98.2971 1075.33 98.6606L1073.46 100.513C1073.15 100.812 1073.09 101.277 1073.31 101.643L1074.64 103.918C1074.9 104.364 1074.75 104.938 1074.3 105.194L1072.01 106.498C1071.64 106.708 1071.46 107.142 1071.57 107.551L1072.27 110.093C1072.4 110.592 1072.11 111.107 1071.61 111.238L1069.06 111.904C1068.65 112.012 1068.36 112.384 1068.36 112.808L1068.38 115.445C1068.38 115.962 1067.96 116.382 1067.44 116.379L1064.81 116.363C1064.38 116.36 1064.01 116.646 1063.9 117.056L1063.24 119.607C1063.11 120.108 1062.59 120.405 1062.09 120.268L1059.55 119.57C1059.14 119.457 1058.71 119.637 1058.5 120.006L1057.19 122.297C1056.94 122.747 1056.36 122.9 1055.92 122.639L1053.64 121.307C1053.28 121.092 1052.81 121.153 1052.51 121.455L1050.66 123.331C1050.3 123.699 1049.7 123.699 1049.34 123.331L1047.49 121.455C1047.19 121.153 1046.72 121.092 1046.36 121.307L1044.08 122.639C1043.64 122.9 1043.06 122.747 1042.81 122.297L1041.5 120.006C1041.29 119.637 1040.86 119.457 1040.45 119.57L1037.91 120.268C1037.41 120.405 1036.89 120.108 1036.76 119.607L1036.1 117.056C1035.99 116.646 1035.62 116.36 1035.19 116.363L1032.56 116.379C1032.04 116.382 1031.62 115.962 1031.62 115.445L1031.64 112.808C1031.64 112.384 1031.35 112.012 1030.94 111.904L1028.39 111.238C1027.89 111.107 1027.6 110.592 1027.73 110.093L1028.43 107.551C1028.54 107.142 1028.36 106.708 1027.99 106.498L1025.7 105.194C1025.25 104.938 1025.1 104.364 1025.36 103.918L1026.69 101.643C1026.91 101.277 1026.85 100.812 1026.54 100.513L1024.67 98.6606C1024.3 98.2971 1024.3 97.7029 1024.67 97.3394L1026.54 95.4868C1026.85 95.1884 1026.91 94.7232 1026.69 94.3569L1025.36 92.082C1025.1 91.6355 1025.25 91.0616 1025.7 90.8057L1027.99 89.5017C1028.36 89.2917 1028.54 88.8582 1028.43 88.4488L1027.73 85.9066C1027.6 85.4077 1027.89 84.8931 1028.39 84.7623L1030.94 84.0957C1031.35 83.9884 1031.64 83.6161 1031.64 83.1916L1031.62 80.5553C1031.62 80.038 1032.04 79.6178 1032.56 79.621L1035.19 79.6373C1035.62 79.64 1035.99 79.3543 1036.1 78.9436L1036.76 76.3929C1036.89 75.8924 1037.41 75.5953 1037.91 75.7323L1040.45 76.4303C1040.86 76.5427 1041.29 76.3632 1041.5 75.9942L1042.81 73.703C1043.06 73.2534 1043.64 73.0996 1044.08 73.361L1046.36 74.6933C1046.72 74.9078 1047.19 74.8466 1047.49 74.5445L1049.34 72.6689Z" fill="#E83289"/>
<path d="M1037.51 104.508C1036.57 104.724 1035.83 104.767 1035.3 104.62C1034.23 104.355 1033.84 103.445 1033.9 101.981L1033.9 101.968L1036.32 101.41L1036.32 101.449C1036.29 102.328 1036.68 102.699 1037.68 102.468C1038.53 102.272 1038.9 101.801 1038.93 101.256C1038.94 101.009 1038.88 100.845 1038.7 100.746C1038.34 100.558 1037.72 100.574 1037.03 100.58C1036.35 100.582 1035.65 100.538 1035.12 100.29C1034.55 100.022 1034.23 99.4937 1034.28 98.4811C1034.31 97.9228 1034.47 97.4133 1034.75 96.9234C1035.31 95.9496 1036.37 95.1905 1037.92 94.8338C1040.25 94.2957 1041.4 95.0824 1041.3 97.0658L1041.3 97.0787L1038.99 97.6139L1038.99 97.6009C1038.99 96.8308 1038.65 96.5491 1037.77 96.7538C1036.97 96.9381 1036.66 97.3948 1036.63 97.8492C1036.62 98.0699 1036.69 98.2471 1036.87 98.32C1037.2 98.4877 1037.8 98.4642 1038.48 98.4621C1039.17 98.457 1039.86 98.501 1040.43 98.7819C1040.99 99.0498 1041.33 99.5982 1041.28 100.624C1041.18 102.454 1039.9 103.955 1037.51 104.508ZM1046.59 100.603L1043.57 101.302L1042.99 103.052L1040.64 103.593L1044.28 93.5562L1046.64 93.0122L1049.34 101.584L1047.01 102.122L1046.59 100.603ZM1045.31 96.0134L1044.24 99.2488L1046.09 98.8218L1045.31 96.0134ZM1049.37 101.578L1049.85 92.2702L1052.24 91.7205L1051.87 98.7049L1055.68 97.8246L1055.56 100.148L1049.37 101.578ZM1062.46 98.5563L1055.95 100.059L1056.43 90.7512L1062.82 89.2773L1062.71 91.3025L1058.6 92.2529L1058.51 93.8108L1062.22 92.9539L1062.12 94.9922L1058.41 95.849L1058.32 97.4198L1062.57 96.4402L1062.46 98.5563Z" fill="#FBDE92"/>
<path d="M1034.21 95.2147L1063.46 87.7861" stroke="#FBDE92" stroke-width="0.928571"/>
<path d="M1034.21 110.071L1063.46 102.643" stroke="#FBDE92" stroke-width="0.928571"/>
</g>
</g>
<path d="M82.4 63.36C77.672 63.36 75.056 60.816 75.056 55.224V53.784C75.056 51.984 75.368 50.52 75.968 49.296C77.192 46.824 79.472 45.576 82.424 45.576C83.912 45.576 85.184 45.864 86.312 46.512C88.52 47.76 89.816 50.184 89.816 53.784V55.224C89.816 60.744 86.96 63.36 82.4 63.36ZM82.424 60.48C85.184 60.48 86.552 58.608 86.552 55.104V53.928C86.552 50.304 85.184 48.408 82.424 48.408C79.616 48.408 78.32 50.376 78.32 53.904V55.104C78.32 58.608 79.616 60.48 82.424 60.48ZM95.555 63H92.387V49.2H95.051L95.339 51.96C96.083 50.064 97.643 48.864 100.019 48.864C103.355 48.864 105.131 51.072 105.131 54.504V63H101.963V55.272C101.963 53.016 101.243 51.6 98.987 51.6C96.635 51.6 95.555 53.232 95.555 55.8V63ZM107.904 63V44.52H111.048V63H107.904ZM113.087 68.16V65.424H114.695C115.295 65.424 115.799 65.352 116.159 65.256C116.903 65.04 117.311 64.488 117.863 63.288L118.127 62.64L112.415 49.2H115.775L119.519 58.536L119.639 59.16L119.807 58.56L123.455 49.2H126.767L120.719 63.792C119.927 65.712 119.303 66.816 118.487 67.416C117.647 68.016 116.543 68.16 114.671 68.16H113.087ZM145.062 60.24C144.126 62.04 142.278 63.36 139.422 63.36C136.422 63.36 134.91 61.92 134.91 59.664C134.91 58.128 135.582 56.976 136.71 56.28C137.094 56.016 137.502 55.824 137.886 55.704C138.702 55.416 139.734 55.224 141.462 54.96C143.934 54.648 144.918 54.312 144.918 53.184C144.918 52.032 144.174 51.312 142.014 51.312C139.734 51.312 138.702 52.296 138.606 54.072H135.366C135.582 50.928 137.886 48.864 141.846 48.864C143.358 48.864 144.51 49.056 145.422 49.464C147.222 50.232 147.942 51.696 147.942 53.688V63H145.398L145.062 60.24ZM140.502 60.936C141.414 60.936 142.182 60.72 142.854 60.312C144.198 59.472 144.942 58.08 144.942 56.76V56.016C144.366 56.424 143.406 56.712 142.158 56.904C140.478 57.168 139.806 57.36 139.158 57.768C138.606 58.128 138.342 58.608 138.342 59.208C138.342 60.36 139.062 60.936 140.502 60.936ZM154.008 63H150.84V49.2H153.504L153.792 51.96C154.536 50.064 156.096 48.864 158.472 48.864C161.808 48.864 163.584 51.072 163.584 54.504V63H160.416V55.272C160.416 53.016 159.696 51.6 157.44 51.6C155.088 51.6 154.008 53.232 154.008 55.8V63ZM186.214 63H174.07V45.888H185.806V48.6H177.118V52.992H184.486V55.728H177.118V60.192H186.214V63ZM194.6 58.056L191.144 63H187.328L192.824 55.776L187.904 49.2H191.6L194.624 53.592L197.744 49.2H201.392L196.4 55.752L201.728 63H198.032L194.6 58.056ZM208.621 63.36C204.205 63.36 201.685 60.888 201.685 56.376V56.016C201.685 54.48 201.997 53.16 202.597 52.104C203.821 49.992 205.981 48.864 208.645 48.864C212.461 48.864 215.077 50.664 215.389 54.696V54.744H212.101V54.672C211.813 52.512 210.589 51.552 208.669 51.552C206.461 51.552 204.949 53.088 204.949 56.016V56.328C204.949 59.064 206.341 60.6 208.645 60.6C210.661 60.6 211.813 59.544 212.125 57.432V57.408H215.413V57.48C215.101 61.56 212.437 63.36 208.621 63.36ZM230.738 58.92C229.946 61.728 227.714 63.36 224.09 63.36C219.434 63.36 217.154 60.672 217.154 56.4V56.064C217.154 54.576 217.442 53.352 218.018 52.248C219.17 50.088 221.282 48.864 224.186 48.864C226.562 48.864 228.242 49.68 229.346 51C230.45 52.32 230.93 54.024 230.93 55.8V57.264H220.274C220.538 59.52 221.93 60.768 224.21 60.768C225.89 60.768 226.874 60.12 227.354 58.92H230.738ZM224.21 51.36C222.026 51.36 220.658 52.608 220.298 54.792H227.786C227.57 52.68 226.418 51.36 224.21 51.36ZM233.318 63V44.52H236.462V63H233.318ZM239.576 63V44.52H242.72V63H239.576ZM258.605 58.92C257.813 61.728 255.581 63.36 251.957 63.36C247.301 63.36 245.021 60.672 245.021 56.4V56.064C245.021 54.576 245.309 53.352 245.885 52.248C247.037 50.088 249.149 48.864 252.053 48.864C254.429 48.864 256.109 49.68 257.213 51C258.317 52.32 258.797 54.024 258.797 55.8V57.264H248.141C248.405 59.52 249.797 60.768 252.077 60.768C253.757 60.768 254.741 60.12 255.221 58.92H258.605ZM252.077 51.36C249.893 51.36 248.525 52.608 248.165 54.792H255.653C255.437 52.68 254.285 51.36 252.077 51.36ZM264.305 63H261.137V49.2H263.801L264.089 51.96C264.833 50.064 266.393 48.864 268.769 48.864C272.105 48.864 273.881 51.072 273.881 54.504V63H270.713V55.272C270.713 53.016 269.993 51.6 267.737 51.6C265.385 51.6 264.305 53.232 264.305 55.8V63ZM284.314 63H282.538C281.242 63 280.234 62.808 279.562 62.496C278.17 61.8 277.738 60.288 277.738 57.48V51.984H275.05V49.32H276.274C276.73 49.32 277.042 49.272 277.258 49.176C277.714 48.96 277.858 48.432 277.93 47.304C277.954 46.704 277.978 45.888 277.978 45.48H280.666V49.2H284.314V51.984H280.666V56.952C280.666 57.864 280.738 58.536 280.858 58.992C281.074 59.904 281.794 60.072 283.33 60.072H284.314V63ZM298.775 63L292.703 45.888H296.039L300.383 58.584L304.631 45.888H307.967L301.967 63H298.775ZM321.16 58.92C320.368 61.728 318.136 63.36 314.512 63.36C309.855 63.36 307.576 60.672 307.576 56.4V56.064C307.576 54.576 307.864 53.352 308.44 52.248C309.592 50.088 311.704 48.864 314.608 48.864C316.984 48.864 318.664 49.68 319.768 51C320.872 52.32 321.352 54.024 321.352 55.8V57.264H310.696C310.96 59.52 312.352 60.768 314.632 60.768C316.312 60.768 317.296 60.12 317.776 58.92H321.16ZM314.632 51.36C312.448 51.36 311.08 52.608 310.72 54.792H318.208C317.992 52.68 316.84 51.36 314.632 51.36ZM326.86 63H323.692V49.2H326.356L326.644 51.96C327.388 50.064 328.948 48.864 331.324 48.864C334.66 48.864 336.436 51.072 336.436 54.504V63H333.268V55.272C333.268 53.016 332.548 51.6 330.292 51.6C327.94 51.6 326.86 53.232 326.86 55.8V63ZM349.379 60.12C348.635 61.992 347.075 63.288 344.603 63.288C341.075 63.288 338.747 60.816 338.747 56.16V55.824C338.747 54.312 339.011 53.04 339.515 52.008C340.523 49.944 342.347 48.888 344.699 48.888C346.979 48.888 348.491 49.872 349.283 51.576V44.52H352.331V63H349.715L349.379 60.12ZM345.563 60.576C347.915 60.576 349.355 58.872 349.355 56.136V55.896C349.355 53.232 347.963 51.504 345.683 51.504C343.307 51.504 341.987 53.112 341.987 55.872V56.136C341.987 59.088 343.475 60.576 345.563 60.576ZM361.598 63.36C357.134 63.36 354.638 60.888 354.638 56.376V56.016C354.638 54.48 354.95 53.16 355.55 52.104C356.75 49.992 358.886 48.864 361.598 48.864C362.99 48.864 364.166 49.128 365.198 49.704C367.31 50.832 368.558 52.968 368.558 56.016V56.376C368.558 57.888 368.27 59.136 367.694 60.168C366.494 62.256 364.406 63.36 361.598 63.36ZM361.598 60.6C363.974 60.6 365.366 59.064 365.366 56.328V56.016C365.366 53.184 363.902 51.552 361.622 51.552C359.366 51.552 357.854 53.088 357.854 56.016V56.328C357.854 59.064 359.246 60.6 361.598 60.6ZM370.965 63V49.2H373.509L373.917 52.44C374.469 50.16 375.885 49.08 378.501 49.08H379.437V52.272H378.069C376.965 52.272 376.149 52.416 375.573 52.704C374.421 53.256 374.061 54.456 374.061 56.616V63H370.965ZM398.692 60.12C397.948 61.992 396.388 63.288 393.916 63.288C390.388 63.288 388.06 60.816 388.06 56.16V55.824C388.06 54.312 388.324 53.04 388.828 52.008C389.836 49.944 391.66 48.888 394.012 48.888C396.292 48.888 397.804 49.872 398.596 51.576V44.52H401.644V63H399.028L398.692 60.12ZM394.876 60.576C397.228 60.576 398.668 58.872 398.668 56.136V55.896C398.668 53.232 397.276 51.504 394.996 51.504C392.62 51.504 391.3 53.112 391.3 55.872V56.136C391.3 59.088 392.788 60.576 394.876 60.576ZM417.535 58.92C416.743 61.728 414.511 63.36 410.887 63.36C406.23 63.36 403.951 60.672 403.951 56.4V56.064C403.951 54.576 404.239 53.352 404.815 52.248C405.967 50.088 408.079 48.864 410.983 48.864C413.359 48.864 415.039 49.68 416.143 51C417.247 52.32 417.727 54.024 417.727 55.8V57.264H407.071C407.335 59.52 408.727 60.768 411.007 60.768C412.687 60.768 413.671 60.12 414.151 58.92H417.535ZM411.007 51.36C408.823 51.36 407.455 52.608 407.095 54.792H414.583C414.367 52.68 413.215 51.36 411.007 51.36ZM425.823 63.36C421.575 63.36 419.511 61.656 419.103 58.44H422.511C422.799 60.072 423.927 60.72 425.895 60.72C427.911 60.72 428.703 60.048 428.703 58.944C428.703 58.536 428.535 58.2 428.175 57.984C427.479 57.576 426.279 57.408 424.959 57.216C423.711 57.024 422.439 56.808 421.407 56.256C420.375 55.704 419.727 54.768 419.727 53.232C419.727 50.688 421.623 48.864 425.415 48.864C429.375 48.864 431.175 50.568 431.559 53.328H428.343C428.127 51.984 427.215 51.384 425.391 51.384C423.423 51.384 422.823 52.08 422.823 53.04C422.823 53.448 422.991 53.784 423.351 54C424.047 54.408 425.271 54.576 426.591 54.768C427.839 54.96 429.111 55.176 430.143 55.728C431.175 56.28 431.823 57.216 431.823 58.752C431.823 61.416 429.903 63.36 425.823 63.36ZM447.089 58.92C446.297 61.728 444.065 63.36 440.441 63.36C435.785 63.36 433.505 60.672 433.505 56.4V56.064C433.505 54.576 433.793 53.352 434.369 52.248C435.521 50.088 437.633 48.864 440.537 48.864C442.913 48.864 444.593 49.68 445.697 51C446.801 52.32 447.281 54.024 447.281 55.8V57.264H436.625C436.889 59.52 438.281 60.768 440.561 60.768C442.241 60.768 443.225 60.12 443.705 58.92H447.089ZM440.561 51.36C438.377 51.36 437.009 52.608 436.649 54.792H444.137C443.921 52.68 442.769 51.36 440.561 51.36ZM449.621 63V49.2H452.165L452.573 52.44C453.125 50.16 454.541 49.08 457.157 49.08H458.093V52.272H456.725C455.621 52.272 454.805 52.416 454.229 52.704C453.077 53.256 452.717 54.456 452.717 56.616V63H449.621ZM464.553 63L459.129 49.2H462.417L465.993 59.088L469.713 49.2H473.025L467.361 63H464.553ZM486.933 58.92C486.141 61.728 483.909 63.36 480.285 63.36C475.629 63.36 473.349 60.672 473.349 56.4V56.064C473.349 54.576 473.637 53.352 474.213 52.248C475.365 50.088 477.477 48.864 480.381 48.864C482.757 48.864 484.437 49.68 485.541 51C486.645 52.32 487.125 54.024 487.125 55.8V57.264H476.469C476.733 59.52 478.125 60.768 480.405 60.768C482.085 60.768 483.069 60.12 483.549 58.92H486.933ZM480.405 51.36C478.221 51.36 476.853 52.608 476.493 54.792H483.981C483.765 52.68 482.613 51.36 480.405 51.36ZM495.222 63.36C490.974 63.36 488.91 61.656 488.502 58.44H491.91C492.198 60.072 493.326 60.72 495.294 60.72C497.31 60.72 498.102 60.048 498.102 58.944C498.102 58.536 497.934 58.2 497.574 57.984C496.878 57.576 495.678 57.408 494.358 57.216C493.11 57.024 491.838 56.808 490.806 56.256C489.774 55.704 489.126 54.768 489.126 53.232C489.126 50.688 491.022 48.864 494.814 48.864C498.774 48.864 500.574 50.568 500.958 53.328H497.742C497.526 51.984 496.614 51.384 494.79 51.384C492.822 51.384 492.222 52.08 492.222 53.04C492.222 53.448 492.39 53.784 492.75 54C493.446 54.408 494.67 54.576 495.99 54.768C497.238 54.96 498.51 55.176 499.542 55.728C500.574 56.28 501.222 57.216 501.222 58.752C501.222 61.416 499.302 63.36 495.222 63.36ZM74.72 102.16V99.424H76.328C76.928 99.424 77.432 99.352 77.792 99.256C78.536 99.04 78.944 98.488 79.496 97.288L79.76 96.64L74.048 83.2H77.408L81.152 92.536L81.272 93.16L81.44 92.56L85.088 83.2H88.4L82.352 97.792C81.56 99.712 80.936 100.816 80.12 101.416C79.28 102.016 78.176 102.16 76.304 102.16H74.72ZM95.8402 97.36C91.3762 97.36 88.8802 94.888 88.8802 90.376V90.016C88.8802 88.48 89.1922 87.16 89.7922 86.104C90.9922 83.992 93.1282 82.864 95.8402 82.864C97.2322 82.864 98.4082 83.128 99.4402 83.704C101.552 84.832 102.8 86.968 102.8 90.016V90.376C102.8 91.888 102.512 93.136 101.936 94.168C100.736 96.256 98.6482 97.36 95.8402 97.36ZM95.8402 94.6C98.2162 94.6 99.6082 93.064 99.6082 90.328V90.016C99.6082 87.184 98.1442 85.552 95.8642 85.552C93.6082 85.552 92.0962 87.088 92.0962 90.016V90.328C92.0962 93.064 93.4882 94.6 95.8402 94.6ZM114.424 94.36C113.728 96.16 112.24 97.288 109.96 97.288C106.648 97.288 105.088 95.176 105.088 91.744V83.2H108.232V90.88C108.232 93.04 108.88 94.528 111.04 94.528C113.128 94.528 114.184 92.824 114.184 90.376V83.2H117.352V97H114.712L114.424 94.36ZM120.325 97V83.2H122.869L123.277 86.44C123.829 84.16 125.245 83.08 127.861 83.08H128.797V86.272H127.429C126.325 86.272 125.509 86.416 124.933 86.704C123.781 87.256 123.421 88.456 123.421 90.616V97H120.325ZM147.523 94.24C146.587 96.04 144.739 97.36 141.883 97.36C138.883 97.36 137.371 95.92 137.371 93.664C137.371 92.128 138.043 90.976 139.171 90.28C139.555 90.016 139.963 89.824 140.347 89.704C141.163 89.416 142.195 89.224 143.923 88.96C146.395 88.648 147.379 88.312 147.379 87.184C147.379 86.032 146.635 85.312 144.475 85.312C142.195 85.312 141.163 86.296 141.067 88.072H137.827C138.043 84.928 140.347 82.864 144.307 82.864C145.819 82.864 146.971 83.056 147.883 83.464C149.683 84.232 150.403 85.696 150.403 87.688V97H147.859L147.523 94.24ZM142.963 94.936C143.875 94.936 144.643 94.72 145.315 94.312C146.659 93.472 147.403 92.08 147.403 90.76V90.016C146.827 90.424 145.867 90.712 144.619 90.904C142.939 91.168 142.267 91.36 141.619 91.768C141.067 92.128 140.803 92.608 140.803 93.208C140.803 94.36 141.523 94.936 142.963 94.936ZM161.103 97H159.327C158.031 97 157.023 96.808 156.351 96.496C154.959 95.8 154.527 94.288 154.527 91.48V85.984H151.839V83.32H153.063C153.519 83.32 153.831 83.272 154.047 83.176C154.503 82.96 154.647 82.432 154.719 81.304C154.743 80.704 154.767 79.888 154.767 79.48H157.455V83.2H161.103V85.984H157.455V90.952C157.455 91.864 157.527 92.536 157.647 92.992C157.863 93.904 158.583 94.072 160.119 94.072H161.103V97ZM171.861 97H170.085C168.789 97 167.781 96.808 167.109 96.496C165.717 95.8 165.285 94.288 165.285 91.48V85.984H162.597V83.32H163.821C164.277 83.32 164.589 83.272 164.805 83.176C165.261 82.96 165.405 82.432 165.477 81.304C165.501 80.704 165.525 79.888 165.525 79.48H168.213V83.2H171.861V85.984H168.213V90.952C168.213 91.864 168.285 92.536 168.405 92.992C168.621 93.904 169.341 94.072 170.877 94.072H171.861V97ZM186.699 92.92C185.907 95.728 183.675 97.36 180.051 97.36C175.395 97.36 173.115 94.672 173.115 90.4V90.064C173.115 88.576 173.403 87.352 173.979 86.248C175.131 84.088 177.243 82.864 180.147 82.864C182.523 82.864 184.203 83.68 185.307 85C186.411 86.32 186.891 88.024 186.891 89.8V91.264H176.235C176.499 93.52 177.891 94.768 180.171 94.768C181.851 94.768 182.835 94.12 183.315 92.92H186.699ZM180.171 85.36C177.987 85.36 176.619 86.608 176.259 88.792H183.747C183.531 86.68 182.379 85.36 180.171 85.36ZM192.399 97H189.231V83.2H191.895L192.183 85.96C192.927 84.064 194.487 82.864 196.863 82.864C200.199 82.864 201.975 85.072 201.975 88.504V97H198.807V89.272C198.807 87.016 198.087 85.6 195.831 85.6C193.479 85.6 192.399 87.232 192.399 89.8V97ZM212.407 97H210.631C209.335 97 208.327 96.808 207.655 96.496C206.263 95.8 205.831 94.288 205.831 91.48V85.984H203.143V83.32H204.367C204.823 83.32 205.135 83.272 205.351 83.176C205.807 82.96 205.951 82.432 206.023 81.304C206.047 80.704 206.071 79.888 206.071 79.48H208.759V83.2H212.407V85.984H208.759V90.952C208.759 91.864 208.831 92.536 208.951 92.992C209.167 93.904 209.887 94.072 211.423 94.072H212.407V97ZM216.317 81.712C214.805 81.712 214.229 81.208 214.229 79.624C214.229 78.088 214.925 77.56 216.317 77.56C217.709 77.56 218.405 78.088 218.405 79.624C218.405 81.112 217.733 81.712 216.317 81.712ZM214.685 97V83.2H217.877V97H214.685ZM227.207 97.36C222.743 97.36 220.247 94.888 220.247 90.376V90.016C220.247 88.48 220.559 87.16 221.159 86.104C222.359 83.992 224.495 82.864 227.207 82.864C228.599 82.864 229.775 83.128 230.807 83.704C232.919 84.832 234.167 86.968 234.167 90.016V90.376C234.167 91.888 233.879 93.136 233.303 94.168C232.103 96.256 230.015 97.36 227.207 97.36ZM227.207 94.6C229.583 94.6 230.975 93.064 230.975 90.328V90.016C230.975 87.184 229.511 85.552 227.231 85.552C224.975 85.552 223.463 87.088 223.463 90.016V90.328C223.463 93.064 224.855 94.6 227.207 94.6ZM239.743 97H236.575V83.2H239.239L239.527 85.96C240.271 84.064 241.831 82.864 244.207 82.864C247.543 82.864 249.319 85.072 249.319 88.504V97H246.151V89.272C246.151 87.016 245.431 85.6 243.175 85.6C240.823 85.6 239.743 87.232 239.743 89.8V97ZM254.366 97.288C252.83 97.288 252.254 96.76 252.254 95.176C252.254 93.592 252.974 93.088 254.366 93.088C255.782 93.088 256.478 93.592 256.478 95.176C256.478 96.688 255.782 97.288 254.366 97.288ZM270.094 84.544V97H267.094V79.888H270.022L275.062 86.8L280.126 79.912H283.03V97H280.03V84.424L279.526 85.264L275.23 91.072H274.774L270.502 85.24L270.094 84.544ZM295.578 94.24C294.642 96.04 292.794 97.36 289.938 97.36C286.938 97.36 285.426 95.92 285.426 93.664C285.426 92.128 286.098 90.976 287.226 90.28C287.61 90.016 288.018 89.824 288.402 89.704C289.218 89.416 290.25 89.224 291.978 88.96C294.45 88.648 295.434 88.312 295.434 87.184C295.434 86.032 294.69 85.312 292.53 85.312C290.25 85.312 289.218 86.296 289.122 88.072H285.882C286.098 84.928 288.402 82.864 292.362 82.864C293.874 82.864 295.026 83.056 295.938 83.464C297.738 84.232 298.458 85.696 298.458 87.688V97H295.914L295.578 94.24ZM291.018 94.936C291.93 94.936 292.698 94.72 293.37 94.312C294.714 93.472 295.458 92.08 295.458 90.76V90.016C294.882 90.424 293.922 90.712 292.674 90.904C290.994 91.168 290.322 91.36 289.674 91.768C289.122 92.128 288.858 92.608 288.858 93.208C288.858 94.36 289.578 94.936 291.018 94.936ZM307.187 90.28L304.451 93.208V97H301.427V78.52H304.451V89.944L304.979 89.296L310.643 83.2H314.555L309.515 88.528L314.699 97H311.123L307.187 90.28ZM328.331 92.92C327.539 95.728 325.307 97.36 321.683 97.36C317.027 97.36 314.747 94.672 314.747 90.4V90.064C314.747 88.576 315.035 87.352 315.611 86.248C316.763 84.088 318.875 82.864 321.779 82.864C324.155 82.864 325.835 83.68 326.939 85C328.043 86.32 328.523 88.024 328.523 89.8V91.264H317.867C318.131 93.52 319.523 94.768 321.803 94.768C323.483 94.768 324.467 94.12 324.947 92.92H328.331ZM321.803 85.36C319.619 85.36 318.251 86.608 317.891 88.792H325.379C325.163 86.68 324.011 85.36 321.803 85.36ZM337.525 102.16V99.424H339.133C339.733 99.424 340.237 99.352 340.597 99.256C341.341 99.04 341.749 98.488 342.301 97.288L342.565 96.64L336.853 83.2H340.213L343.957 92.536L344.077 93.16L344.245 92.56L347.893 83.2H351.205L345.157 97.792C344.365 99.712 343.741 100.816 342.925 101.416C342.085 102.016 340.981 102.16 339.109 102.16H337.525ZM358.645 97.36C354.181 97.36 351.685 94.888 351.685 90.376V90.016C351.685 88.48 351.997 87.16 352.597 86.104C353.797 83.992 355.933 82.864 358.645 82.864C360.037 82.864 361.213 83.128 362.245 83.704C364.357 84.832 365.605 86.968 365.605 90.016V90.376C365.605 91.888 365.317 93.136 364.741 94.168C363.541 96.256 361.453 97.36 358.645 97.36ZM358.645 94.6C361.021 94.6 362.413 93.064 362.413 90.328V90.016C362.413 87.184 360.949 85.552 358.669 85.552C356.413 85.552 354.901 87.088 354.901 90.016V90.328C354.901 93.064 356.293 94.6 358.645 94.6ZM377.229 94.36C376.533 96.16 375.045 97.288 372.765 97.288C369.453 97.288 367.893 95.176 367.893 91.744V83.2H371.037V90.88C371.037 93.04 371.685 94.528 373.845 94.528C375.933 94.528 376.989 92.824 376.989 90.376V83.2H380.157V97H377.517L377.229 94.36ZM383.129 97V83.2H385.673L386.081 86.44C386.633 84.16 388.049 83.08 390.665 83.08H391.601V86.272H390.233C389.129 86.272 388.313 86.416 387.737 86.704C386.585 87.256 386.225 88.456 386.225 90.616V97H383.129ZM404.016 97H400.848V83.2H403.512L403.8 85.96C404.544 84.064 406.104 82.864 408.48 82.864C411.816 82.864 413.592 85.072 413.592 88.504V97H410.424V89.272C410.424 87.016 409.704 85.6 407.448 85.6C405.096 85.6 404.016 87.232 404.016 89.8V97ZM429.488 92.92C428.696 95.728 426.464 97.36 422.84 97.36C418.184 97.36 415.904 94.672 415.904 90.4V90.064C415.904 88.576 416.192 87.352 416.768 86.248C417.92 84.088 420.032 82.864 422.936 82.864C425.312 82.864 426.992 83.68 428.096 85C429.2 86.32 429.68 88.024 429.68 89.8V91.264H419.024C419.288 93.52 420.68 94.768 422.96 94.768C424.64 94.768 425.624 94.12 426.104 92.92H429.488ZM422.96 85.36C420.776 85.36 419.408 86.608 419.048 88.792H426.536C426.32 86.68 425.168 85.36 422.96 85.36ZM436.897 92.056L433.441 97H429.625L435.121 89.776L430.201 83.2H433.897L436.921 87.592L440.041 83.2H443.689L438.697 89.752L444.025 97H440.329L436.897 92.056ZM453.345 97H451.569C450.273 97 449.265 96.808 448.593 96.496C447.201 95.8 446.769 94.288 446.769 91.48V85.984H444.081V83.32H445.305C445.761 83.32 446.073 83.272 446.289 83.176C446.745 82.96 446.889 82.432 446.961 81.304C446.985 80.704 447.009 79.888 447.009 79.48H449.697V83.2H453.345V85.984H449.697V90.952C449.697 91.864 449.769 92.536 449.889 92.992C450.105 93.904 450.825 94.072 452.361 94.072H453.345V97ZM475.87 92.92C475.078 95.728 472.846 97.36 469.222 97.36C464.566 97.36 462.286 94.672 462.286 90.4V90.064C462.286 88.576 462.574 87.352 463.15 86.248C464.302 84.088 466.414 82.864 469.318 82.864C471.694 82.864 473.374 83.68 474.478 85C475.582 86.32 476.062 88.024 476.062 89.8V91.264H465.406C465.67 93.52 467.062 94.768 469.342 94.768C471.022 94.768 472.006 94.12 472.486 92.92H475.87ZM469.342 85.36C467.158 85.36 465.79 86.608 465.43 88.792H472.918C472.702 86.68 471.55 85.36 469.342 85.36ZM481.897 97L476.473 83.2H479.761L483.337 93.088L487.057 83.2H490.369L484.705 97H481.897ZM504.277 92.92C503.485 95.728 501.253 97.36 497.629 97.36C492.973 97.36 490.693 94.672 490.693 90.4V90.064C490.693 88.576 490.981 87.352 491.557 86.248C492.709 84.088 494.821 82.864 497.725 82.864C500.101 82.864 501.781 83.68 502.885 85C503.989 86.32 504.469 88.024 504.469 89.8V91.264H493.813C494.077 93.52 495.469 94.768 497.749 94.768C499.429 94.768 500.413 94.12 500.893 92.92H504.277ZM497.749 85.36C495.565 85.36 494.197 86.608 493.837 88.792H501.325C501.109 86.68 499.957 85.36 497.749 85.36ZM509.977 97H506.809V83.2H509.473L509.761 85.96C510.505 84.064 512.065 82.864 514.441 82.864C517.777 82.864 519.553 85.072 519.553 88.504V97H516.385V89.272C516.385 87.016 515.665 85.6 513.409 85.6C511.057 85.6 509.977 87.232 509.977 89.8V97ZM529.986 97H528.21C526.914 97 525.906 96.808 525.234 96.496C523.842 95.8 523.41 94.288 523.41 91.48V85.984H520.722V83.32H521.946C522.402 83.32 522.714 83.272 522.93 83.176C523.386 82.96 523.53 82.432 523.602 81.304C523.626 80.704 523.65 79.888 523.65 79.48H526.338V83.2H529.986V85.984H526.338V90.952C526.338 91.864 526.41 92.536 526.53 92.992C526.746 93.904 527.466 94.072 529.002 94.072H529.986V97ZM78.656 131H75.512V117.2H78.152L78.44 119.72C79.184 117.992 80.624 116.864 82.808 116.864C85.184 116.864 86.552 117.944 87.152 119.744C87.848 117.968 89.36 116.864 91.616 116.864C94.856 116.864 96.512 118.928 96.512 122.36V131H93.368V123.224C93.368 121.04 92.6 119.6 90.488 119.6C88.424 119.6 87.608 121.088 87.608 123.176V131H84.488V123.104C84.488 122.456 84.416 121.88 84.224 121.328C83.912 120.272 83.12 119.6 81.68 119.6C79.616 119.6 78.656 121.232 78.656 123.608V131ZM105.754 131.36C101.29 131.36 98.7943 128.888 98.7943 124.376V124.016C98.7943 122.48 99.1063 121.16 99.7063 120.104C100.906 117.992 103.042 116.864 105.754 116.864C107.146 116.864 108.322 117.128 109.354 117.704C111.466 118.832 112.714 120.968 112.714 124.016V124.376C112.714 125.888 112.426 127.136 111.85 128.168C110.65 130.256 108.562 131.36 105.754 131.36ZM105.754 128.6C108.13 128.6 109.522 127.064 109.522 124.328V124.016C109.522 121.184 108.058 119.552 105.778 119.552C103.522 119.552 102.01 121.088 102.01 124.016V124.328C102.01 127.064 103.402 128.6 105.754 128.6ZM115.121 131V117.2H117.665L118.073 120.44C118.625 118.16 120.041 117.08 122.657 117.08H123.593V120.272H122.225C121.121 120.272 120.305 120.416 119.729 120.704C118.577 121.256 118.217 122.456 118.217 124.616V131H115.121ZM138.183 126.92C137.391 129.728 135.159 131.36 131.535 131.36C126.879 131.36 124.599 128.672 124.599 124.4V124.064C124.599 122.576 124.887 121.352 125.463 120.248C126.615 118.088 128.727 116.864 131.631 116.864C134.007 116.864 135.687 117.68 136.791 119C137.895 120.32 138.375 122.024 138.375 123.8V125.264H127.719C127.983 127.52 129.375 128.768 131.655 128.768C133.335 128.768 134.319 128.12 134.799 126.92H138.183ZM131.655 119.36C129.471 119.36 128.103 120.608 127.743 122.792H135.231C135.015 120.68 133.863 119.36 131.655 119.36ZM152.248 131L146.824 117.2H150.112L153.688 127.088L157.408 117.2H160.72L155.056 131H152.248ZM164.051 115.712C162.539 115.712 161.963 115.208 161.963 113.624C161.963 112.088 162.659 111.56 164.051 111.56C165.443 111.56 166.139 112.088 166.139 113.624C166.139 115.112 165.467 115.712 164.051 115.712ZM162.419 131V117.2H165.611V131H162.419ZM176.286 131.36C173.91 131.36 172.35 130.112 171.606 128.216L171.318 131H168.654V112.52H171.702V119.84C172.518 118.016 174.126 116.864 176.382 116.864C177.534 116.864 178.494 117.152 179.406 117.656C181.182 118.712 182.214 120.728 182.214 123.824V124.184C182.214 128.744 179.91 131.36 176.286 131.36ZM175.326 128.576C177.702 128.576 179.022 127.088 179.022 124.16V123.872C179.022 121.112 177.558 119.504 175.398 119.504C173.118 119.504 171.63 121.256 171.63 123.8V124.04C171.63 126.896 173.07 128.576 175.326 128.576ZM184.614 131V117.2H187.158L187.566 120.44C188.118 118.16 189.534 117.08 192.15 117.08H193.086V120.272H191.718C190.614 120.272 189.798 120.416 189.222 120.704C188.07 121.256 187.71 122.456 187.71 124.616V131H184.614ZM204.101 128.24C203.165 130.04 201.317 131.36 198.461 131.36C195.461 131.36 193.949 129.92 193.949 127.664C193.949 126.128 194.621 124.976 195.749 124.28C196.133 124.016 196.541 123.824 196.925 123.704C197.741 123.416 198.773 123.224 200.501 122.96C202.973 122.648 203.957 122.312 203.957 121.184C203.957 120.032 203.213 119.312 201.053 119.312C198.773 119.312 197.741 120.296 197.645 122.072H194.405C194.621 118.928 196.925 116.864 200.885 116.864C202.397 116.864 203.549 117.056 204.461 117.464C206.261 118.232 206.981 119.696 206.981 121.688V131H204.437L204.101 128.24ZM199.541 128.936C200.453 128.936 201.221 128.72 201.893 128.312C203.237 127.472 203.981 126.08 203.981 124.76V124.016C203.405 124.424 202.445 124.712 201.197 124.904C199.517 125.168 198.845 125.36 198.197 125.768C197.645 126.128 197.381 126.608 197.381 127.208C197.381 128.36 198.101 128.936 199.541 128.936ZM213.047 131H209.879V117.2H212.543L212.831 119.96C213.575 118.064 215.135 116.864 217.511 116.864C220.847 116.864 222.623 119.072 222.623 122.504V131H219.455V123.272C219.455 121.016 218.735 119.6 216.479 119.6C214.127 119.6 213.047 121.232 213.047 123.8V131ZM233.056 131H231.28C229.984 131 228.976 130.808 228.304 130.496C226.912 129.8 226.48 128.288 226.48 125.48V119.984H223.792V117.32H225.016C225.472 117.32 225.784 117.272 226 117.176C226.456 116.96 226.6 116.432 226.672 115.304C226.696 114.704 226.72 113.888 226.72 113.48H229.408V117.2H233.056V119.984H229.408V124.952C229.408 125.864 229.48 126.536 229.6 126.992C229.816 127.904 230.536 128.072 232.072 128.072H233.056V131Z" fill="#CA1C62"/>
<path d="M985 30C986 29.3333 985 26 985 26H999.333H1012.67C1012.67 26 1011.67 29 1012.67 30.3333C1013.67 31.6667 1017.67 30.3333 1017.67 30.3333V36V42C1017.67 42 1013.67 41 1012.67 42C1011.67 43 1012.67 46 1012.67 46H999.333H985.333C985.333 46 986 43.6667 985 42.3333C984 41 981 42 981 42V30C981 30 984 30.6667 985 30Z" fill="#F05F2A" fill-opacity="0.05"/>
<path d="M986.333 31.0886C987.205 30.5108 986.666 27.333 986.666 27.333H999.666H1011.3C1011.3 27.333 1010.43 29.933 1011.3 31.0886C1012.18 32.2441 1015.67 31.9997 1015.67 31.9997V35.9997V40.533C1015.67 40.533 1012.54 39.6663 1011.67 40.533C1010.79 41.3997 1011.3 44.6663 1011.3 44.6663H999.666H987.448C987.448 44.6663 987.872 42.3552 986.999 41.1997C986.127 40.0441 983.666 40.533 983.666 40.533V31.4663C983.666 31.4663 985.46 31.6663 986.333 31.0886Z" fill="#2D8331"/>
<circle cx="998.667" cy="14.6667" r="2.33333" fill="#2D8331" stroke="white" stroke-width="0.666667"/>
<path d="M990.334 26.6663L997.001 16.333" stroke="white" stroke-width="1.33333"/>
<path d="M1007.33 26.6667L1000.33 16" stroke="white" stroke-width="1.33333"/>
<path d="M990.456 38.819C989.928 38.819 989.467 38.7283 989.072 38.547C988.683 38.3603 988.36 38.1177 988.104 37.819C987.848 37.515 987.656 37.187 987.528 36.835C987.405 36.483 987.344 36.1443 987.344 35.819V35.643C987.344 35.2803 987.408 34.923 987.536 34.571C987.669 34.2137 987.867 33.891 988.128 33.603C988.389 33.315 988.715 33.0857 989.104 32.915C989.493 32.739 989.944 32.651 990.456 32.651C990.968 32.651 991.419 32.739 991.808 32.915C992.197 33.0857 992.523 33.315 992.784 33.603C993.045 33.891 993.243 34.2137 993.376 34.571C993.509 34.923 993.576 35.2803 993.576 35.643V35.819C993.576 36.1443 993.512 36.483 993.384 36.835C993.256 37.187 993.064 37.515 992.808 37.819C992.552 38.1177 992.227 38.3603 991.832 38.547C991.443 38.7283 990.984 38.819 990.456 38.819ZM990.456 37.595C990.733 37.595 990.981 37.547 991.2 37.451C991.424 37.355 991.613 37.2217 991.768 37.051C991.928 36.8803 992.048 36.683 992.128 36.459C992.208 36.235 992.248 35.995 992.248 35.739C992.248 35.467 992.205 35.219 992.12 34.995C992.04 34.7657 991.92 34.5683 991.76 34.403C991.605 34.2323 991.419 34.1017 991.2 34.011C990.981 33.9203 990.733 33.875 990.456 33.875C990.179 33.875 989.931 33.9203 989.712 34.011C989.493 34.1017 989.304 34.2323 989.144 34.403C988.989 34.5683 988.872 34.7657 988.792 34.995C988.712 35.219 988.672 35.467 988.672 35.739C988.672 35.995 988.712 36.235 988.792 36.459C988.872 36.683 988.989 36.8803 989.144 37.051C989.304 37.2217 989.493 37.355 989.712 37.451C989.931 37.547 990.179 37.595 990.456 37.595ZM995.722 36.995V35.859H996.77C996.973 35.859 997.146 35.819 997.29 35.739C997.439 35.659 997.554 35.547 997.634 35.403C997.714 35.2537 997.754 35.083 997.754 34.891C997.754 34.6883 997.714 34.515 997.634 34.371C997.554 34.2217 997.439 34.1097 997.29 34.035C997.146 33.955 996.973 33.915 996.77 33.915H995.722V32.779H996.706C997.202 32.779 997.626 32.8617 997.978 33.027C998.335 33.1923 998.607 33.427 998.794 33.731C998.986 34.035 999.082 34.4003 999.082 34.827V34.955C999.082 35.371 998.986 35.7337 998.794 36.043C998.607 36.347 998.335 36.5817 997.978 36.747C997.626 36.9123 997.202 36.995 996.706 36.995H995.722ZM994.57 38.667V32.779H995.882V38.667H994.57ZM999.906 38.667V32.827H1001.19V38.667H999.906ZM1001.03 38.667V37.579H1003.58V38.667H1001.03ZM1001.03 36.243V35.155H1003.39V36.243H1001.03ZM1001.03 33.915V32.827H1003.52V33.915H1001.03ZM1004.66 38.667V32.827H1006.81L1009.01 37.603H1009.28L1009.12 37.747V32.827H1010.35V38.667H1008.18L1005.98 33.891H1005.71L1005.87 33.747V38.667H1004.66Z" fill="white"/>
<path d="M884 30C885 29.3333 884 26 884 26H898.333H911.667C911.667 26 910.667 29 911.667 30.3333C912.667 31.6667 916.667 30.3333 916.667 30.3333V36V42C916.667 42 912.667 41 911.667 42C910.667 43 911.667 46 911.667 46H898.333H884.333C884.333 46 885 43.6667 884 42.3333C883 41 880 42 880 42V30C880 30 883 30.6667 884 30Z" fill="#F05F2A" fill-opacity="0.05"/>
<path d="M885.333 31.0886C886.205 30.5108 885.666 27.333 885.666 27.333H898.666H910.302C910.302 27.333 909.43 29.933 910.302 31.0886C911.175 32.2441 914.666 31.9997 914.666 31.9997V35.9997V40.533C914.666 40.533 911.539 39.6663 910.666 40.533C909.793 41.3997 910.302 44.6663 910.302 44.6663H898.666H886.448C886.448 44.6663 886.872 42.3552 885.999 41.1997C885.127 40.0441 882.666 40.533 882.666 40.533V31.4663C882.666 31.4663 884.46 31.6663 885.333 31.0886Z" fill="#2D8331"/>
<circle cx="897.667" cy="14.6667" r="2.33333" fill="#2D8331" stroke="white" stroke-width="0.666667"/>
<path d="M889.334 26.6663L896.001 16.333" stroke="white" stroke-width="1.33333"/>
<path d="M906.334 26.6667L899.334 16" stroke="white" stroke-width="1.33333"/>
<path d="M889.456 38.819C888.928 38.819 888.467 38.7283 888.072 38.547C887.683 38.3603 887.36 38.1177 887.104 37.819C886.848 37.515 886.656 37.187 886.528 36.835C886.405 36.483 886.344 36.1443 886.344 35.819V35.643C886.344 35.2803 886.408 34.923 886.536 34.571C886.669 34.2137 886.867 33.891 887.128 33.603C887.389 33.315 887.715 33.0857 888.104 32.915C888.493 32.739 888.944 32.651 889.456 32.651C889.968 32.651 890.419 32.739 890.808 32.915C891.197 33.0857 891.523 33.315 891.784 33.603C892.045 33.891 892.243 34.2137 892.376 34.571C892.509 34.923 892.576 35.2803 892.576 35.643V35.819C892.576 36.1443 892.512 36.483 892.384 36.835C892.256 37.187 892.064 37.515 891.808 37.819C891.552 38.1177 891.227 38.3603 890.832 38.547C890.443 38.7283 889.984 38.819 889.456 38.819ZM889.456 37.595C889.733 37.595 889.981 37.547 890.2 37.451C890.424 37.355 890.613 37.2217 890.768 37.051C890.928 36.8803 891.048 36.683 891.128 36.459C891.208 36.235 891.248 35.995 891.248 35.739C891.248 35.467 891.205 35.219 891.12 34.995C891.04 34.7657 890.92 34.5683 890.76 34.403C890.605 34.2323 890.419 34.1017 890.2 34.011C889.981 33.9203 889.733 33.875 889.456 33.875C889.179 33.875 888.931 33.9203 888.712 34.011C888.493 34.1017 888.304 34.2323 888.144 34.403C887.989 34.5683 887.872 34.7657 887.792 34.995C887.712 35.219 887.672 35.467 887.672 35.739C887.672 35.995 887.712 36.235 887.792 36.459C887.872 36.683 887.989 36.8803 888.144 37.051C888.304 37.2217 888.493 37.355 888.712 37.451C888.931 37.547 889.179 37.595 889.456 37.595ZM894.722 36.995V35.859H895.77C895.973 35.859 896.146 35.819 896.29 35.739C896.439 35.659 896.554 35.547 896.634 35.403C896.714 35.2537 896.754 35.083 896.754 34.891C896.754 34.6883 896.714 34.515 896.634 34.371C896.554 34.2217 896.439 34.1097 896.29 34.035C896.146 33.955 895.973 33.915 895.77 33.915H894.722V32.779H895.706C896.202 32.779 896.626 32.8617 896.978 33.027C897.335 33.1923 897.607 33.427 897.794 33.731C897.986 34.035 898.082 34.4003 898.082 34.827V34.955C898.082 35.371 897.986 35.7337 897.794 36.043C897.607 36.347 897.335 36.5817 896.978 36.747C896.626 36.9123 896.202 36.995 895.706 36.995H894.722ZM893.57 38.667V32.779H894.882V38.667H893.57ZM898.906 38.667V32.827H900.186V38.667H898.906ZM900.026 38.667V37.579H902.578V38.667H900.026ZM900.026 36.243V35.155H902.394V36.243H900.026ZM900.026 33.915V32.827H902.522V33.915H900.026ZM903.656 38.667V32.827H905.808L908.008 37.603H908.28L908.12 37.747V32.827H909.352V38.667H907.184L904.984 33.891H904.712L904.872 33.747V38.667H903.656Z" fill="white"/>
<g filter="url(#filter1_d_499_4247)">
<path d="M945.644 74.6217C946.316 72.9488 948.684 72.9488 949.356 74.6217L955.696 90.4099C955.982 91.1223 956.651 91.6081 957.417 91.66L974.391 92.811C976.19 92.933 976.922 95.1853 975.538 96.3412L962.482 107.25C961.893 107.742 961.638 108.528 961.825 109.273L965.976 125.772C966.416 127.52 964.5 128.912 962.973 127.954L948.563 118.908C947.913 118.499 947.087 118.499 946.437 118.908L932.027 127.954C930.5 128.912 928.584 127.52 929.024 125.772L933.175 109.273C933.362 108.528 933.107 107.742 932.518 107.25L919.462 96.3412C918.078 95.1853 918.81 92.933 920.609 92.811L937.583 91.66C938.349 91.6081 939.018 91.1223 939.304 90.4099L945.644 74.6217Z" fill="#FFA51F"/>
</g>
<path d="M941.864 110.168C939.584 110.168 938.516 109.04 938.504 107.24V107.216H940.208V107.276C940.208 108.128 940.82 108.764 941.948 108.764C943.04 108.764 943.772 108.164 943.772 107.036C943.772 105.98 943.148 105.404 942.104 105.404C941.144 105.404 940.652 105.8 940.316 106.352L940.256 106.424L938.588 105.98L939.188 101.444H945.08C945.08 102.092 944.996 102.44 944.72 102.62C944.432 102.812 943.928 102.848 943.04 102.848H940.424L940.148 104.876C940.616 104.408 941.264 104.084 942.32 104.084C942.968 104.084 943.496 104.216 943.952 104.456C944.864 104.972 945.38 105.884 945.38 107.096C945.38 107.72 945.236 108.26 944.948 108.728C944.384 109.64 943.328 110.168 941.864 110.168ZM947.112 110.144C946.344 110.144 946.056 109.88 946.056 109.088C946.056 108.296 946.416 108.044 947.112 108.044C947.82 108.044 948.168 108.296 948.168 109.088C948.168 109.844 947.82 110.144 947.112 110.144ZM952.508 110.18C950.204 110.18 948.944 108.824 948.944 106.112V105.404C948.944 102.716 950.24 101.288 952.508 101.288C953.228 101.288 953.84 101.432 954.392 101.756C955.472 102.38 956.084 103.592 956.084 105.392V106.112C956.084 107.012 955.928 107.756 955.64 108.368C955.04 109.568 953.96 110.18 952.508 110.18ZM952.508 108.74C953.792 108.74 954.416 107.84 954.416 106.04V105.464C954.416 103.7 953.816 102.716 952.508 102.716C951.176 102.716 950.6 103.7 950.6 105.464V106.052C950.6 107.804 951.176 108.74 952.508 108.74Z" fill="white"/>
<defs>
<filter id="filter0_d_499_4247" x="1012" y="64" width="76" height="76" filterUnits="userSpaceOnUse" color-interpolation-filters="sRGB">
<feFlood flood-opacity="0" result="BackgroundImageFix"/>
<feColorMatrix in="SourceAlpha" type="matrix" values="0 0 0 0 0 0 0 0 0 0 0 0 0 0 0 0 0 0 127 0" result="hardAlpha"/>
<feOffset dy="4"/>
<feGaussianBlur stdDeviation="6"/>
<feComposite in2="hardAlpha" operator="out"/>
<feColorMatrix type="matrix" values="0 0 0 0 0.988235 0 0 0 0 0.686275 0 0 0 0 0.00392157 0 0 0 0.5 0"/>
<feBlend mode="normal" in2="BackgroundImageFix" result="effect1_dropShadow_499_4247"/>
<feBlend mode="normal" in="SourceGraphic" in2="effect1_dropShadow_499_4247" result="shape"/>
</filter>
<filter id="filter1_d_499_4247" x="906.741" y="65.3669" width="81.5186" height="78.8998" filterUnits="userSpaceOnUse" color-interpolation-filters="sRGB">
<feFlood flood-opacity="0" result="BackgroundImageFix"/>
<feColorMatrix in="SourceAlpha" type="matrix" values="0 0 0 0 0 0 0 0 0 0 0 0 0 0 0 0 0 0 127 0" result="hardAlpha"/>
<feOffset dy="4"/>
<feGaussianBlur stdDeviation="6"/>
<feComposite in2="hardAlpha" operator="out"/>
<feColorMatrix type="matrix" values="0 0 0 0 0.988235 0 0 0 0 0.686275 0 0 0 0 0.00392157 0 0 0 0.5 0"/>
<feBlend mode="normal" in2="BackgroundImageFix" result="effect1_dropShadow_499_4247"/>
<feBlend mode="normal" in="SourceGraphic" in2="effect1_dropShadow_499_4247" result="shape"/>
</filter>
</defs>
</svg>
